<svg xmlns="http://www.w3.org/2000/svg" xmlns:svg="http://www.w3.org/2000/svg" viewBox="0 0 55.6 55.6"><style>.st7{fill:#932d0d}.st34{fill:#fff}.st58{fill:#d0230c;stroke-miterlimit:10}</style><g><title>Layer 1</title><circle id="svg_1" cx="27.8" cy="27.8" r="26.5" class="st58"/><g id="XMLID_25_"><path id="svg_2" d="m26.1,9.5c0,-1.4 1.3,-1.5 1.6,-1.5c0.9,0 1.9,0.6 1.9,1.5c0,1.8 0.1,13.8 0.1,13.8c0,0.3 0.2,0.5 0.5,0.5s0.5,-0.2 0.6,-0.5c0,0 0.1,-10.1 0.1,-12.3c0,-0.8 0.7,-1.3 1.4,-1.3c0.3,0 1.2,0 1.4,1.4c0.1,0.9 0.1,16.7 0.4,17c0.3,0.2 0.6,0.3 0.8,0.2c1,-0.5 2.3,-2.7 3.4,-5.1c0.4,-0.9 1.4,-1 1.9,-1c0.8,0 1.4,0.3 1.5,0.5c-0.7,1.2 -2.7,7.4 -3.5,10.4c-0.4,1.4 -1.9,2.9 -3.3,4.2c-1.5,1.4 -2.7,2.6 -2.7,3.7l0,5.2l-10.5,0c0,-1.7 0.1,-5.9 -0.3,-6.7c-0.2,-0.5 -0.7,-1 -1.2,-1.6c-0.7,-0.8 -1.5,-1.7 -1.6,-2.4c-0.3,-1.3 -0.5,-17.3 -0.4,-19.8c0,-0.5 0.2,-0.9 0.5,-1.2c0.3,-0.3 0.6,-0.4 1,-0.4c0.3,0 0.9,0.1 0.9,1l0,8.5s0,0.5 0.6,0.5c0.4,0 0.5,-0.3 0.5,-0.6c0,0 0.2,-11.1 0.2,-13c0,-0.7 0.8,-1.2 1.6,-1.2c0.3,0 1.3,0 1.4,1c0.1,0.9 0.1,1.6 0.1,2.2l0,10.8c-0.1,0.5 0.5,0.5 0.5,0.5c0.3,0 0.5,-0.2 0.5,-0.5l0,-10.8c0.1,-0.8 0.1,-1.8 0.1,-3z" class="st34"/><path id="svg_3" d="m20.8,10.5c0,-1.4 1.4,-2.2 2.7,-2.3c0.7,0 1.3,0.2 1.7,0.5c0.3,-1.2 1.4,-1.7 2.5,-1.7c1.4,0 2.8,0.9 3,2.3c0.4,-0.4 1,-0.6 1.5,-0.6c1.1,0 2.3,0.7 2.5,2.3c0.1,0.9 0.2,15.8 0.2,15.8c0.4,-0.3 1.6,-2.5 2.3,-4c0.5,-1 1.4,-1.5 2.6,-1.6c1.2,0 2.4,0.4 2.7,1.1c0.2,0.3 0.2,0.7 0,1.1c-0.6,1 -2.6,7.2 -3.4,10.2c-0.5,1.7 -2.1,3.3 -3.6,4.7c-1.1,1.1 -2.4,2.3 -2.4,2.9l0,5.7c0,0.3 -0.2,0.5 -0.5,0.5l-11.5,0c-0.1,0 -0.3,-0.1 -0.4,-0.2c-0.1,-0.1 -0.2,-0.3 -0.2,-0.4c0.1,-3 0.1,-6.3 -0.2,-6.8c-0.1,-0.3 -0.6,-0.8 -1,-1.3c-0.8,-0.9 -1.7,-2 -1.9,-2.9c-0.3,-1.5 -0.5,-18 -0.4,-20.1c0,-1.7 1.3,-2.7 2.6,-2.7c0.4,0 0.7,0.1 1,0.3c0.1,-1 0.2,-2.1 0.2,-2.8zm-0.6,27.4c0.5,0.6 1,1.2 1.2,1.6c0.4,0.9 0.3,5 0.3,6.7l10.6,0l0,-5.2c0,-1.1 1.3,-2.3 2.7,-3.7c1.4,-1.3 2.9,-2.8 3.3,-4.2c0.8,-3 2.8,-9.3 3.5,-10.4c-0.1,-0.2 -0.7,-0.5 -1.5,-0.5c-0.5,0 -1.5,0.1 -1.9,1c-1.1,2.3 -2.5,4.6 -3.4,5.1c-0.2,0.1 -0.4,0 -0.8,-0.2c-0.3,-0.2 -0.3,-16.1 -0.4,-17c-0.2,-1.3 -1.1,-1.4 -1.4,-1.4c-0.7,0 -1.3,0.5 -1.4,1.3c-0.1,2.2 -0.1,12.3 -0.1,12.3c0,0.3 -0.3,0.5 -0.6,0.5s-0.5,-0.3 -0.5,-0.5c0,0 -0.1,-12.1 -0.1,-13.8c0,-0.9 -1,-1.5 -1.9,-1.5c-0.4,0 -1.6,0.1 -1.6,1.5l0,13.7c0,0.3 -0.3,0.5 -0.5,0.5c0,0 -0.6,0 -0.5,-0.5l0,-10.8c0,-0.6 -0.1,-1.4 -0.1,-2.2c-0.1,-1 -1.1,-1 -1.4,-1c-0.8,0 -1.6,0.5 -1.6,1.2c0,1.9 -0.2,13 -0.2,13c0,0.3 -0.1,0.6 -0.5,0.6c-0.6,0 -0.6,-0.5 -0.6,-0.5l0,-8.5c0,-0.9 -0.6,-1 -0.9,-1c-0.4,0 -0.7,0.1 -1,0.4c-0.3,0.3 -0.5,0.7 -0.5,1.2c-0.1,2.5 0.1,18.6 0.4,19.8c-0.1,0.8 0.7,1.7 1.4,2.5z" class="st7"/></g><path id="svg_4" fill="#000" d="m18.494399,48.383l0,-4.2l17.1,0l0,4.2l-17.1,0z" class="st7"/></g></svg>